<svg width="144" height="102" viewBox="0 0 144 102" fill="none" xmlns="http://www.w3.org/2000/svg">
<path d="M0.891045 43.0756H29.451V33.8356H15.351L22.311 26.8156C26.151 22.9756 28.851 18.6556 28.851 13.6156C28.851 5.15556 22.131 0.235559 14.631 0.235559C8.81105 0.235559 3.17105 3.17556 0.471045 9.41556L8.57105 14.1556C9.71105 11.5156 11.811 9.59556 14.751 9.59556C17.571 9.59556 19.251 11.3956 19.251 14.0356C19.251 16.4956 17.451 18.9556 14.991 21.4756L0.891045 36.1156V43.0756ZM47.7843 15.8356H44.3643L44.7843 10.0756H60.0843V1.07556H35.7843L34.0443 25.1956H47.1843C50.8443 25.1956 52.5843 27.2956 52.5843 29.8756C52.5843 32.4556 50.8443 34.5556 46.8843 34.5556C42.9243 34.5556 41.1243 32.8756 40.1643 30.1156L31.8843 34.9156C34.4643 41.0956 40.2243 43.9156 46.8843 43.9156C54.9843 43.9156 62.1843 39.1156 62.1843 29.8756C62.1843 20.6356 55.5843 15.8356 47.7843 15.8356ZM94.2726 17.8756H84.6726V8.27556H76.2726V17.8756H66.6726V26.2756H76.2726V35.8756H84.6726V26.2756H94.2726V17.8756Z" fill="#0CA941"/>
<path d="M6.78905 75.3096C9.11105 75.3096 11.163 74.1216 12.207 72.2856L10.407 71.2596C9.75905 72.5016 8.37305 73.2936 6.78905 73.2936C4.07104 73.2936 2.27105 71.3676 2.27105 68.7756C2.27105 66.1836 4.07104 64.2576 6.78905 64.2576C8.37305 64.2576 9.74104 65.0496 10.407 66.2916L12.207 65.2476C11.145 63.4116 9.09305 62.2416 6.78905 62.2416C2.95505 62.2416 0.201045 65.1216 0.201045 68.7756C0.201045 72.4296 2.95505 75.3096 6.78905 75.3096ZM18.0312 75.3096C20.6772 75.3096 22.7832 73.2396 22.7832 70.5756C22.7832 67.8936 20.6772 65.8416 18.0312 65.8416C15.4032 65.8416 13.2792 67.8936 13.2792 70.5756C13.2792 73.2396 15.4032 75.3096 18.0312 75.3096ZM18.0312 73.4196C16.4472 73.4196 15.2232 72.2136 15.2232 70.5756C15.2232 68.9376 16.4472 67.7316 18.0312 67.7316C19.6152 67.7316 20.8392 68.9376 20.8392 70.5756C20.8392 72.2136 19.6152 73.4196 18.0312 73.4196ZM34.369 65.8416C33.163 65.8416 32.209 66.3276 31.615 67.2636C31.093 66.3636 30.229 65.8416 29.059 65.8416C27.943 65.8416 27.061 66.2736 26.485 67.1556V66.0756H24.541V75.0756H26.485V70.0356C26.485 68.3976 27.385 67.6596 28.483 67.6596C29.545 67.6596 30.175 68.3616 30.175 69.6216V75.0756H32.119V70.0356C32.119 68.3976 32.929 67.6596 34.081 67.6596C35.143 67.6596 35.827 68.3616 35.827 69.6216V75.0756H37.771V69.4956C37.771 67.2456 36.403 65.8416 34.369 65.8416ZM44.9455 65.8416C43.5415 65.8416 42.4795 66.4176 41.7955 67.3716V66.0756H39.8515V78.6756H41.7955V73.7976C42.4795 74.7336 43.5415 75.3096 44.9455 75.3096C47.3935 75.3096 49.4275 73.2576 49.4275 70.5756C49.4275 67.9116 47.3935 65.8416 44.9455 65.8416ZM44.6395 73.4556C43.0195 73.4556 41.7955 72.2496 41.7955 70.5756C41.7955 68.9016 43.0195 67.6956 44.6395 67.6956C46.2595 67.6956 47.4835 68.9016 47.4835 70.5756C47.4835 72.2496 46.2595 73.4556 44.6395 73.4556ZM51.1894 75.0756H53.1334V61.9356H51.1894V75.0756ZM56.9206 71.4036H64.0846C64.1206 71.1516 64.1566 70.8636 64.1566 70.5936C64.1566 68.0016 62.3206 65.8416 59.6386 65.8416C56.8126 65.8416 54.8866 67.9116 54.8866 70.5756C54.8866 73.2756 56.8126 75.3096 59.7826 75.3096C61.5466 75.3096 62.8966 74.5716 63.7246 73.3476L62.1226 72.4116C61.6906 73.0416 60.8806 73.5276 59.8006 73.5276C58.3606 73.5276 57.2266 72.8076 56.9206 71.4036ZM56.9026 69.8196C57.1726 68.4696 58.1626 67.6056 59.6206 67.6056C60.7906 67.6056 61.9246 68.2716 62.1946 69.8196H56.9026ZM70.6079 67.9476V66.0756H68.3759V63.5556L66.4319 64.1316V66.0756H64.7759V67.9476H66.4319V72.2676C66.4319 74.6076 67.6199 75.4356 70.6079 75.0756V73.3296C69.1319 73.4016 68.3759 73.4196 68.3759 72.2676V67.9476H70.6079ZM73.5319 71.4036H80.6959C80.7319 71.1516 80.7679 70.8636 80.7679 70.5936C80.7679 68.0016 78.9319 65.8416 76.2499 65.8416C73.4239 65.8416 71.4979 67.9116 71.4979 70.5756C71.4979 73.2756 73.4239 75.3096 76.3939 75.3096C78.1579 75.3096 79.5079 74.5716 80.3359 73.3476L78.7339 72.4116C78.3019 73.0416 77.4919 73.5276 76.4119 73.5276C74.9719 73.5276 73.8379 72.8076 73.5319 71.4036ZM73.5139 69.8196C73.7839 68.4696 74.7739 67.6056 76.2319 67.6056C77.4019 67.6056 78.5359 68.2716 78.8059 69.8196H73.5139ZM91.7485 62.4756H87.1045V75.0756H89.1745V70.7556H91.7485C94.1245 70.7556 95.9245 68.9376 95.9245 66.6156C95.9245 64.2756 94.1245 62.4756 91.7485 62.4756ZM91.7485 68.8116H89.1745V64.4196H91.7485C92.9725 64.4196 93.8545 65.3376 93.8545 66.6156C93.8545 67.8756 92.9725 68.8116 91.7485 68.8116ZM99.3639 67.5876V66.0756H97.4199V75.0756H99.3639V70.5396C99.3639 68.5236 100.858 67.9296 102.136 68.0196V65.9136C101.002 65.9136 99.9039 66.3636 99.3639 67.5876ZM107.398 75.3096C110.044 75.3096 112.15 73.2396 112.15 70.5756C112.15 67.8936 110.044 65.8416 107.398 65.8416C104.77 65.8416 102.646 67.8936 102.646 70.5756C102.646 73.2396 104.77 75.3096 107.398 75.3096ZM107.398 73.4196C105.814 73.4196 104.59 72.2136 104.59 70.5756C104.59 68.9376 105.814 67.7316 107.398 67.7316C108.982 67.7316 110.206 68.9376 110.206 70.5756C110.206 72.2136 108.982 73.4196 107.398 73.4196ZM114.941 64.7256C115.625 64.7256 116.183 64.1496 116.183 63.4836C116.183 62.7996 115.625 62.2416 114.941 62.2416C114.257 62.2416 113.699 62.7996 113.699 63.4836C113.699 64.1496 114.257 64.7256 114.941 64.7256ZM113.969 75.4356C113.969 76.6956 113.411 77.1456 112.223 77.0376V78.9096C114.689 79.0896 115.913 77.9196 115.913 75.4356V66.0756H113.969V75.4356ZM119.71 71.4036H126.874C126.91 71.1516 126.946 70.8636 126.946 70.5936C126.946 68.0016 125.11 65.8416 122.428 65.8416C119.602 65.8416 117.676 67.9116 117.676 70.5756C117.676 73.2756 119.602 75.3096 122.572 75.3096C124.336 75.3096 125.686 74.5716 126.514 73.3476L124.912 72.4116C124.48 73.0416 123.67 73.5276 122.59 73.5276C121.15 73.5276 120.016 72.8076 119.71 71.4036ZM119.692 69.8196C119.962 68.4696 120.952 67.6056 122.41 67.6056C123.58 67.6056 124.714 68.2716 124.984 69.8196H119.692ZM132.851 75.3096C134.615 75.3096 136.145 74.3916 136.901 72.9696L135.227 72.0156C134.795 72.8436 133.913 73.4016 132.833 73.4016C131.249 73.4016 130.043 72.1956 130.043 70.5756C130.043 68.9556 131.249 67.7496 132.833 67.7496C133.913 67.7496 134.795 68.2896 135.191 69.1356L136.865 68.1636C136.145 66.7596 134.615 65.8416 132.851 65.8416C130.133 65.8416 128.099 67.8936 128.099 70.5756C128.099 73.2396 130.133 75.3096 132.851 75.3096ZM143.329 67.9476V66.0756H141.097V63.5556L139.153 64.1316V66.0756H137.497V67.9476H139.153V72.2676C139.153 74.6076 140.341 75.4356 143.329 75.0756V73.3296C141.853 73.4016 141.097 73.4196 141.097 72.2676V67.9476H143.329ZM5.47505 88.4756H0.831045V101.076H2.90104V96.7556H5.47505C7.85105 96.7556 9.65104 94.9376 9.65104 92.6156C9.65104 90.2756 7.85105 88.4756 5.47505 88.4756ZM5.47505 94.8116H2.90104V90.4196H5.47505C6.69905 90.4196 7.58105 91.3376 7.58105 92.6156C7.58105 93.8756 6.69905 94.8116 5.47505 94.8116ZM12.2194 97.4036H19.3834C19.4194 97.1516 19.4554 96.8636 19.4554 96.5936C19.4554 94.0016 17.6194 91.8416 14.9374 91.8416C12.1114 91.8416 10.1854 93.9116 10.1854 96.5756C10.1854 99.2756 12.1114 101.31 15.0814 101.31C16.8454 101.31 18.1954 100.572 19.0234 99.3476L17.4214 98.4116C16.9894 99.0416 16.1794 99.5276 15.0994 99.5276C13.6594 99.5276 12.5254 98.8076 12.2194 97.4036ZM12.2014 95.8196C12.4714 94.4696 13.4614 93.6056 14.9194 93.6056C16.0894 93.6056 17.2234 94.2716 17.4934 95.8196H12.2014ZM23.11 93.5876V92.0756H21.166V101.076H23.11V96.5396C23.11 94.5236 24.604 93.9296 25.882 94.0196V91.9136C24.748 91.9136 23.65 92.3636 23.11 93.5876ZM44.0043 88.4756H41.7903L37.9743 94.7756L34.1763 88.4756H31.9443V101.076H34.0143V92.0756L37.8483 98.4296H38.1003L41.9343 92.0936V101.076H44.0043V88.4756ZM50.6386 101.31C53.2846 101.31 55.3906 99.2396 55.3906 96.5756C55.3906 93.8936 53.2846 91.8416 50.6386 91.8416C48.0106 91.8416 45.8866 93.8936 45.8866 96.5756C45.8866 99.2396 48.0106 101.31 50.6386 101.31ZM50.6386 99.4196C49.0546 99.4196 47.8306 98.2136 47.8306 96.5756C47.8306 94.9376 49.0546 93.7316 50.6386 93.7316C52.2226 93.7316 53.4466 94.9376 53.4466 96.5756C53.4466 98.2136 52.2226 99.4196 50.6386 99.4196ZM61.8824 91.8416C60.6584 91.8416 59.6864 92.2916 59.0924 93.2276V92.0756H57.1484V101.076H59.0924V96.2516C59.0924 94.4156 60.1004 93.6596 61.3784 93.6596C62.6024 93.6596 63.3944 94.3796 63.3944 95.7476V101.076H65.3384V95.5496C65.3384 93.2096 63.8984 91.8416 61.8824 91.8416ZM72.4536 93.9476V92.0756H70.2216V89.5556L68.2776 90.1316V92.0756H66.6216V93.9476H68.2776V98.2676C68.2776 100.608 69.4656 101.436 72.4536 101.076V99.3296C70.9776 99.4016 70.2216 99.4196 70.2216 98.2676V93.9476H72.4536ZM78.9508 91.8416C77.7268 91.8416 76.7548 92.2916 76.1608 93.2276V88.4756H74.2168V101.076H76.1608V96.2516C76.1608 94.4156 77.1688 93.6596 78.4468 93.6596C79.6708 93.6596 80.4628 94.3796 80.4628 95.7476V101.076H82.4068V95.5496C82.4068 93.2096 80.9668 91.8416 78.9508 91.8416ZM85.67 101.292C86.408 101.292 87.02 100.68 87.02 99.9416C87.02 99.1856 86.408 98.5916 85.67 98.5916C84.914 98.5916 84.32 99.1856 84.32 99.9416C84.32 100.68 84.914 101.292 85.67 101.292Z" fill="#678570"/>
</svg>
