<svg width="118" height="96" viewBox="0 0 118 96" fill="none" xmlns="http://www.w3.org/2000/svg">
<path fill-rule="evenodd" clip-rule="evenodd" d="M70.8149 35.2224C70.1596 28.1277 65.5482 22.3701 59.1926 18.2984C52.0239 13.7575 42.7568 11.273 34.8666 11.3077C32.0951 11.3822 29.3805 11.7215 26.8189 12.3407C23.0376 13.1938 19.287 14.4781 15.6893 16.0423C15.3745 16.1632 15.2128 16.564 15.3657 16.8439C15.5187 17.1238 15.9865 17.2828 16.3012 17.1619C19.3961 16.2858 22.478 15.4929 25.6035 15.0479C28.729 14.6029 31.8283 14.3243 35.0412 14.5751C42.2189 14.6839 50.5243 17.0167 56.963 21.1868C62.2302 24.6605 66.1204 29.3665 66.7802 35.183C64.9966 35.2428 63.3093 35.3178 61.5826 35.6423C58.3347 36.2385 55.2004 37.3642 52.4026 39.4809C50.3961 40.9549 48.1228 43.4953 47.4277 46.0288C46.7849 48.2295 47.117 50.4987 49.3113 52.2089C53.5906 55.6973 58.3204 55.079 62.3204 52.2141C66.9629 49.0242 70.4734 43.0126 71.0332 38.8378C72.7905 38.9444 74.4385 39.119 76.1826 39.3088C83.1592 40.068 89.8777 43.0884 95.0444 47.8252C99.5903 52.123 103.214 57.8954 104.634 64.5139C105.866 69.824 104.931 75.1331 103.208 79.8066C102.01 83.0282 100.371 85.9243 98.7969 88.4045C97.3586 90.6502 95.999 92.3968 94.622 93.6291C94.5127 93.6972 94.4996 93.7804 94.5957 93.7955C94.6919 93.8107 94.7881 93.8259 94.7881 93.8259C96.5935 93.0022 98.683 91.6264 100.672 89.6381C102.906 87.3472 104.956 84.3454 106.469 81.0029C108.738 75.9893 109.779 70.0146 108.651 64.039C107.061 56.6263 103.144 50.2109 97.7853 45.4438C91.915 40.1698 84.3834 36.68 76.3358 35.8373C74.5086 35.5491 72.6683 35.3442 70.8149 35.2224ZM66.6138 38.7378C65.2281 38.775 63.8293 38.8955 62.5135 39.1143C59.8819 39.5519 57.364 40.519 55.1258 42.2123C53.8974 43.127 52.481 44.6089 51.7509 46.1137C51.1694 47.301 50.8765 48.5337 52.0086 49.4796C54.452 51.4848 57.2191 50.8128 59.5404 49.2178C63.0769 46.7914 66.0759 42.1486 66.6138 38.7378Z" fill="#F47458"/>
<path fill-rule="evenodd" clip-rule="evenodd" d="M16.7819 17.2374C17.7917 16.4588 18.8016 15.6801 19.7152 14.8863C20.8475 13.9565 22.0759 13.0418 23.1119 12.0968C25.9622 9.64738 28.537 7.06927 31.2911 4.6047C31.619 4.40062 31.5753 4.05268 31.3261 3.75761C31.077 3.46253 30.6792 3.48506 30.3513 3.68915C27.6323 5.30663 24.734 6.8106 22.0149 8.42809C20.8259 9.0932 19.6237 9.8415 18.5177 10.605C15.9779 12.336 13.7003 14.2789 11.4359 16.1386C11.2042 16.3578 10.7408 16.7963 10.5659 17.2803C10.391 17.7643 10.3123 18.2634 10.439 18.7097C10.5658 19.156 10.7887 19.6175 11.5056 20.0716C11.8771 20.2154 12.6202 20.5031 13.6781 20.6699C17.2363 21.2311 26.1582 21.5296 28.0116 21.6513L31.7578 21.6453C31.9633 21.5924 32.2518 21.6379 32.5665 21.517C32.9774 21.4113 33.4015 21.2224 33.6332 21.0031C33.7556 20.8519 33.4802 20.7232 33.6725 20.7536C33.7687 20.7687 33.6988 20.5872 33.5895 20.6552C33.4539 20.8896 33.4234 20.4585 33.3141 20.5265C32.9862 20.7306 33.3534 20.2769 33.0649 20.2314C32.9688 20.2163 33.1742 20.1634 32.9819 20.1331C32.7895 20.1028 33.1873 20.0802 33.0081 19.9667C32.9251 19.8683 33.2136 19.9138 33.1305 19.8155C33.0475 19.7171 33.3097 19.929 33.2398 19.7474C33.1568 19.6491 33.3229 19.8458 33.3229 19.8458C33.3229 19.8458 33.3491 19.6794 33.3928 20.0274C33.2835 20.0954 33.2704 20.1786 33.3666 20.1937C33.4496 20.2921 33.5458 20.3073 33.5589 20.2241C34.3457 20.8597 33.6551 20.2392 34.0266 20.3831C34.1228 20.3983 34.0397 20.2999 34.1359 20.3151C34.6299 20.3077 33.9698 20.1183 34.2015 19.8991C34.3108 19.8311 34.0092 19.8688 34.1184 19.8007C34.2408 19.6495 33.8999 19.9368 33.8562 19.5889C33.8824 19.4225 33.7338 19.7401 33.5808 19.4602C33.4147 19.2635 33.6901 19.3922 33.2355 19.1499C32.9601 19.0213 32.1645 19.0663 31.8891 18.9376L28.4139 18.4749C26.8752 18.2322 20.8341 17.7911 16.7819 17.2374Z" fill="#F47458"/>
</svg>
