<svg width="146" height="36" viewBox="0 0 146 36" fill="none" xmlns="http://www.w3.org/2000/svg">
<path d="M62.4072 6.08213V15.0662H54.0049V6.08213H49.5452V28.7039H54.0049V19.332H62.4072V28.7039H66.8346V6.08213H62.4072ZM78.5346 29.1563C83.2851 29.1563 87.0985 25.4399 87.0985 20.6247C87.0985 15.8095 83.2851 12.093 78.5346 12.093C73.784 12.093 70.0029 15.8095 70.0029 20.6247C70.0029 25.4399 73.784 29.1563 78.5346 29.1563ZM78.5346 25.0844C76.0785 25.0844 74.1718 23.2423 74.1718 20.6247C74.1718 18.007 76.0785 16.165 78.5346 16.165C81.023 16.165 82.9296 18.007 82.9296 20.6247C82.9296 23.2423 81.023 25.0844 78.5346 25.0844ZM99.4354 12.093C97.0763 12.093 95.3635 12.9656 94.2001 14.4522V6.08213H90.0312V28.7039H94.2001V26.7972C95.3635 28.2837 97.0763 29.1563 99.4354 29.1563C103.766 29.1563 107.321 25.4399 107.321 20.6247C107.321 15.8095 103.766 12.093 99.4354 12.093ZM98.6598 25.1813C96.1068 25.1813 94.2001 23.3393 94.2001 20.6247C94.2001 17.9101 96.1068 16.068 98.6598 16.068C101.245 16.068 103.152 17.9101 103.152 20.6247C103.152 23.3393 101.245 25.1813 98.6598 25.1813ZM119.665 12.093C117.306 12.093 115.593 12.9656 114.43 14.4522V6.08213H110.261V28.7039H114.43V26.7972C115.593 28.2837 117.306 29.1563 119.665 29.1563C123.995 29.1563 127.55 25.4399 127.55 20.6247C127.55 15.8095 123.995 12.093 119.665 12.093ZM118.889 25.1813C116.336 25.1813 114.43 23.3393 114.43 20.6247C114.43 17.9101 116.336 16.068 118.889 16.068C121.475 16.068 123.381 17.9101 123.381 20.6247C123.381 23.3393 121.475 25.1813 118.889 25.1813ZM140.394 12.5455L136.807 23.4039L132.606 12.5455H128.049L134.674 28.1868C133.899 30.352 132.735 31.3215 130.441 31.2892V35.1672C134.545 35.3934 137.292 33.3575 138.972 28.7039L144.854 12.5455H140.394Z" fill="#374A3D"/>
<g clip-path="url(#clip0_2_811)">
<path d="M19.167 8.29337C17.244 10.6415 16.2452 13.5654 16.3272 16.6464L16.3495 17.3942L14.9333 17.0576L13.8973 15.9733C13.9345 14.201 14.2774 12.4661 14.9259 10.806C16.1557 7.63531 17.9521 5.97518 19.1744 4.74878L19.6589 6.72298L19.167 8.29337Z" fill="#0CA941"/>
<path d="M15.5669 9.37756C15.3433 9.81877 15.1272 10.2974 14.9259 10.8133C14.3669 12.2566 14.0315 13.7522 13.9271 15.2852C14.993 15.5021 15.8278 15.8162 16.3272 16.033C16.3719 13.9392 16.916 11.9276 17.9074 10.1478C17.0278 9.66921 16.1856 9.45982 15.5669 9.37756Z" fill="url(#paint0_linear_2_811)"/>
<path d="M9.90218 24.4009C12.9507 24.9019 15.9992 24.2513 18.5335 22.6884L19.167 22.2996L19.6515 23.8999L19.167 25.1412C16.9459 26.3601 14.4563 27.0033 11.9296 27.0033C9.70093 27.0033 8.23257 26.5396 6.84619 26.1657L8.27729 24.8496L9.90218 24.4009Z" fill="#0CA941"/>
<path d="M12.5034 24.5506C13.0923 25.3731 13.3904 26.2406 13.5469 26.9136C15.5072 26.6968 17.4154 26.0985 19.167 25.1338L19.1968 25.0516C19.0104 24.072 18.6527 23.3017 18.3471 22.7932C16.5806 23.8476 14.5755 24.4533 12.5034 24.5506Z" fill="url(#paint1_linear_2_811)"/>
<path d="M28.4318 24.4009C27.366 21.5592 25.3386 19.2261 22.6404 17.7529L21.9844 17.3939L23.177 16.2199L24.4367 15.9806C25.9498 16.9004 27.2765 18.067 28.3796 19.4579C30.4965 22.1126 31.0331 24.4981 31.4804 26.1732L30.012 25.8142L28.4318 24.4009Z" fill="#0CA941"/>
<path d="M23.4081 18.2017C25.1374 19.3009 26.5461 20.7816 27.5524 22.524C28.3723 21.9706 28.9462 21.32 29.3338 20.7741C29.058 20.3404 28.7449 19.8992 28.3872 19.4505C27.4182 18.2316 26.2778 17.1921 24.9958 16.3322C24.4218 17.1622 23.8405 17.7904 23.4081 18.2017Z" fill="url(#paint2_linear_2_811)"/>
<path d="M12.495 35.0127C10.2067 35.0127 7.91849 33.5994 6.24887 31.9916C-3.01598 22.6964 0.248705 6.96258 12.2938 2.06446C24.2643 -2.81122 37.4274 6.01287 37.4274 19.0396C37.4274 28.2825 30.6744 35.0127 25.837 35.0127C21.9388 35.0127 19.6356 30.9895 20.4928 26.9364C22.0133 19.6977 26.4184 19.8099 28.6917 13.5657C24.1674 12.6459 21.6928 13.9845 19.1735 15.5324C16.6541 13.9845 14.1944 12.6459 9.65518 13.5657C11.9211 19.8024 16.3336 19.7127 17.8542 26.9364C18.6964 30.997 16.3933 35.0127 12.495 35.0127ZM7.95575 30.2567C13.4789 35.3268 16.2218 31.0195 15.469 27.445C14.0528 20.6998 9.29741 21.298 6.9197 13.0273L6.57683 11.8308C10.08 10.8886 14.0603 9.81172 19.166 12.6908C21.417 11.427 23.5711 10.8287 25.9115 10.8287C28.252 10.8287 30.1601 11.3971 31.7552 11.8308L31.4123 13.0273C29.0346 21.298 24.2792 20.6998 22.863 27.445C22.1102 31.012 24.8382 35.3418 30.3763 30.2567C36.533 24.0649 36.5255 13.9994 30.3614 7.81508C24.1748 1.6083 14.1572 1.6083 7.97066 7.81508C1.80651 13.9994 1.79906 24.0574 7.95575 30.2567Z" fill="#0CA941"/>
<path d="M22.7448 28.4765C22.7523 28.1326 22.797 27.7811 22.8641 27.4371C23.3113 25.2984 24.0939 23.9 25.0331 22.7184C23.9896 22.5315 23.1324 22.2398 22.5287 21.9856C21.679 23.212 20.9485 24.73 20.4864 26.9286C20.4342 27.1679 20.3969 27.4147 20.3671 27.654C21.2765 28.1699 22.1336 28.3868 22.7448 28.4765Z" fill="url(#paint3_linear_2_811)"/>
<path d="M9.01508 17.7453C10.3344 19.7569 11.8176 20.9459 13.0624 22.434C13.681 21.6563 14.2997 21.073 14.7618 20.6767C13.4723 19.211 12.0487 18.022 10.8561 16.0927C10.0139 16.6161 9.41012 17.2368 9.01508 17.7453Z" fill="url(#paint4_linear_2_811)"/>
<path d="M25.9051 13.2586C25.8156 12.3313 25.5473 11.4638 25.3088 10.8357C23.2814 10.9254 21.3733 11.4788 19.3981 12.5556C19.8602 13.5727 20.0093 14.4177 20.0391 15.001C21.7087 14.0363 23.4677 13.2586 25.9051 13.2586Z" fill="url(#paint5_linear_2_811)"/>
<path d="M6.84619 26.1656C7.25614 24.6251 7.78535 22.1574 9.9469 19.4503C11.0575 18.0594 12.3768 16.8928 13.8899 15.973L16.3421 17.3939L15.6862 17.7528C12.9805 19.226 10.9606 21.5516 9.89473 24.4008L6.84619 26.1656Z" fill="#0CA941"/>
<path d="M31.4879 26.1659L30.3177 26.4799C26.5089 27.5044 22.5435 26.9885 19.1671 25.1339V22.2922L19.8006 22.6811C22.3348 24.244 25.3834 24.8871 28.4319 24.3936L31.4879 26.1659Z" fill="#0CA941"/>
<path d="M21.9845 17.394L22.0069 16.6462C22.0889 13.5652 21.0826 10.6413 19.1671 8.29322V4.7561L20.0242 5.61608C22.879 8.48017 24.3548 12.2192 24.4368 15.9732L21.9845 17.394Z" fill="#0CA941"/>
</g>
<defs>
<linearGradient id="paint0_linear_2_811" x1="16.4787" y1="9.8852" x2="15.1742" y2="15.3787" gradientUnits="userSpaceOnUse">
<stop stop-color="#0CA941"/>
<stop offset="0.5" stop-color="#088733"/>
<stop offset="1" stop-color="#0CA941"/>
</linearGradient>
<linearGradient id="paint1_linear_2_811" x1="13.3447" y1="25.8397" x2="18.5992" y2="23.9646" gradientUnits="userSpaceOnUse">
<stop stop-color="#0CA941"/>
<stop offset="0.5" stop-color="#088733"/>
<stop offset="1" stop-color="#0CA941"/>
</linearGradient>
<linearGradient id="paint2_linear_2_811" x1="24.3445" y1="17.4328" x2="28.441" y2="21.3215" gradientUnits="userSpaceOnUse">
<stop stop-color="#0CA941"/>
<stop offset="0.5" stop-color="#088733"/>
<stop offset="1" stop-color="#0CA941"/>
</linearGradient>
<linearGradient id="paint3_linear_2_811" x1="23.5026" y1="22.4623" x2="21.6443" y2="27.889" gradientUnits="userSpaceOnUse">
<stop stop-color="#0CA941"/>
<stop offset="0.5" stop-color="#067E2F"/>
<stop offset="1" stop-color="#0CA941"/>
</linearGradient>
<linearGradient id="paint4_linear_2_811" x1="9.85164" y1="17.0325" x2="13.9129" y2="21.3036" gradientUnits="userSpaceOnUse">
<stop stop-color="#0CA941"/>
<stop offset="0.5" stop-color="#088733"/>
<stop offset="1" stop-color="#0CA941"/>
</linearGradient>
<linearGradient id="paint5_linear_2_811" x1="19.9566" y1="13.5208" x2="25.4692" y2="11.937" gradientUnits="userSpaceOnUse">
<stop stop-color="#0CA941"/>
<stop offset="0.5" stop-color="#088733"/>
<stop offset="1" stop-color="#0CA941"/>
</linearGradient>
<clipPath id="clip0_2_811">
<rect width="36.5228" height="34.3093" fill="white" transform="translate(0.90564 0.703125)"/>
</clipPath>
</defs>
</svg>
