<svg width="42" height="51" viewBox="0 0 42 51" fill="none" xmlns="http://www.w3.org/2000/svg">
<path d="M9.14465 37.2735C9.14465 38.3135 8.84465 39.1469 8.24465 39.7735C7.64465 40.4002 6.91799 40.8135 6.06465 41.0135V42.2935C6.06465 42.7602 6.01799 43.0869 5.92465 43.2735C5.84465 43.4602 5.71799 43.5869 5.54465 43.6535C5.38465 43.7202 5.16465 43.7535 4.88465 43.7535C4.60465 43.7535 4.37799 43.7202 4.20465 43.6535C4.04465 43.5869 3.93132 43.4669 3.86465 43.2935C3.77132 43.0669 3.72465 42.7269 3.72465 42.2735V41.0335C3.17799 40.9135 2.68465 40.7135 2.24465 40.4335C1.80465 40.1535 1.49799 39.9069 1.32465 39.6935L1.06465 39.3535C0.784653 38.9935 0.644653 38.6802 0.644653 38.4135C0.644653 38.1469 0.87132 37.7935 1.32465 37.3535C1.59132 37.1002 1.87132 36.9735 2.16465 36.9735C2.47132 36.9735 2.89132 37.2402 3.42465 37.7735C3.83799 38.2802 4.30465 38.5335 4.82465 38.5335C5.81132 38.5335 6.30465 38.1269 6.30465 37.3135C6.30465 37.0202 6.11799 36.7935 5.74465 36.6335C5.37132 36.4735 4.91799 36.3335 4.38465 36.2135C3.85132 36.0802 3.31799 35.9069 2.78465 35.6935C2.25132 35.4802 1.79799 35.1135 1.42465 34.5935C1.05132 34.0735 0.864653 33.4135 0.864653 32.6135C0.864653 31.8135 1.11799 31.0935 1.62465 30.4535C2.13132 29.8135 2.83132 29.4002 3.72465 29.2135V28.0935C3.72465 27.6402 3.76465 27.3135 3.84465 27.1135C3.97799 26.7935 4.33132 26.6335 4.90465 26.6335C5.26465 26.6335 5.53132 26.7135 5.70465 26.8735C5.89132 27.0202 5.99799 27.1802 6.02465 27.3535C6.05132 27.5269 6.06465 27.7802 6.06465 28.1135V29.2335C6.43799 29.3135 6.77799 29.4269 7.08465 29.5735C7.39132 29.7202 7.60465 29.8402 7.72465 29.9335L7.90465 30.0935L7.98465 30.1535C8.31799 30.4602 8.48465 30.7135 8.48465 30.9135C8.48465 31.1135 8.32465 31.4469 8.00465 31.9135C7.69799 32.3802 7.35799 32.6135 6.98465 32.6135C6.74465 32.6135 6.53799 32.5535 6.36465 32.4335C6.20465 32.3135 6.07799 32.2135 5.98465 32.1335C5.89132 32.0535 5.80465 31.9869 5.72465 31.9335C5.49799 31.7869 5.21132 31.7135 4.86465 31.7135C4.51799 31.7135 4.23132 31.8002 4.00465 31.9735C3.77799 32.1335 3.66465 32.3602 3.66465 32.6535C3.66465 32.9469 3.79799 33.1869 4.06465 33.3735C4.34465 33.5469 4.68465 33.6669 5.08465 33.7335C5.48465 33.7869 5.92465 33.8869 6.40465 34.0335C6.88465 34.1669 7.32465 34.3269 7.72465 34.5135C8.12465 34.7002 8.45799 35.0335 8.72465 35.5135C9.00465 35.9802 9.14465 36.5669 9.14465 37.2735ZM13.9968 27.9735C14.3435 27.6269 14.7168 27.4535 15.1168 27.4535C15.5302 27.4535 15.8502 27.4869 16.0768 27.5535C16.3035 27.6202 16.4768 27.7002 16.5968 27.7935C16.7168 27.8735 16.8102 28.0135 16.8768 28.2135C16.9435 28.4402 16.9768 28.7935 16.9768 29.2735V40.4135C16.9768 40.7202 16.9635 40.9535 16.9368 41.1135C16.9235 41.2602 16.8635 41.4335 16.7568 41.6335C16.5702 41.9935 16.0502 42.1735 15.1968 42.1735C14.3702 42.1735 13.8568 42.0002 13.6568 41.6535C13.5502 41.4535 13.4835 41.2735 13.4568 41.1135C13.4435 40.9402 13.4368 40.6935 13.4368 40.3735V33.2335L13.1768 33.4735C12.6302 33.8869 12.1635 34.0935 11.7768 34.0935C11.3902 34.0935 10.9835 33.8602 10.5568 33.3935C10.1435 32.9269 9.93684 32.5135 9.93684 32.1535C9.93684 31.7935 10.1768 31.4002 10.6568 30.9735L13.9368 28.0135L13.9968 27.9735ZM20.9014 27.4335L23.9414 27.4535H25.8214C26.1414 27.4535 26.3747 27.4669 26.5214 27.4935C26.668 27.5069 26.8414 27.5669 27.0414 27.6735C27.4014 27.8602 27.5814 28.3935 27.5814 29.2735C27.5814 30.0735 27.4147 30.5602 27.0814 30.7335C26.8947 30.8402 26.728 30.9069 26.5814 30.9335C26.448 30.9469 26.2347 30.9535 25.9414 30.9535H22.4414C22.4147 31.1135 22.348 31.6202 22.2414 32.4735C22.388 32.4469 22.6214 32.4335 22.9414 32.4335C24.208 32.4335 25.348 32.9135 26.3614 33.8735C27.3747 34.8202 27.8814 35.9869 27.8814 37.3735C27.8814 38.7469 27.4014 39.9335 26.4414 40.9335C25.4814 41.9202 24.288 42.4135 22.8614 42.4135C21.6214 42.4135 20.5014 42.1002 19.5014 41.4735C19.2747 41.3269 19.108 41.2002 19.0014 41.0935L18.8414 40.9535C18.3347 40.5135 18.0814 40.1135 18.0814 39.7535C18.0814 39.3935 18.328 38.9602 18.8214 38.4535C19.2214 38.0135 19.608 37.7935 19.9814 37.7935C20.3547 37.7935 20.8014 38.0069 21.3214 38.4335C21.5614 38.7135 21.9747 38.8535 22.5614 38.8535C23.1614 38.8535 23.6014 38.7269 23.8814 38.4735C24.1747 38.2202 24.3214 37.8735 24.3214 37.4335C24.3214 36.9802 24.1614 36.6269 23.8414 36.3735C23.5347 36.1069 23.1814 35.9735 22.7814 35.9735C22.3814 35.9735 22.0614 36.0935 21.8214 36.3335C21.4614 36.6402 21.0947 36.7935 20.7214 36.7935C20.3614 36.7935 19.9414 36.6669 19.4614 36.4135C18.9947 36.1602 18.688 35.9602 18.5414 35.8135C18.3947 35.6535 18.3214 35.4869 18.3214 35.3135C18.3214 35.1402 18.4547 34.0669 18.7214 32.0935C18.988 30.1202 19.128 29.0935 19.1414 29.0135C19.1547 28.9335 19.2014 28.7935 19.2814 28.5935C19.3614 28.3935 19.4547 28.2135 19.5614 28.0535C19.6814 27.8935 19.8547 27.7535 20.0814 27.6335C20.3214 27.5002 20.5947 27.4335 20.9014 27.4335ZM30.4068 29.1735C30.7935 28.6269 31.3335 28.1735 32.0268 27.8135C32.7335 27.4402 33.5468 27.2535 34.4668 27.2535C35.3868 27.2535 36.1868 27.4335 36.8668 27.7935C37.5602 28.1535 38.1002 28.6002 38.4868 29.1335C38.8868 29.6669 39.2068 30.2935 39.4468 31.0135C39.8468 32.2135 40.0468 33.4869 40.0468 34.8335C40.0468 37.2469 39.5268 39.1602 38.4868 40.5735C38.1002 41.1069 37.5602 41.5469 36.8668 41.8935C36.1868 42.2402 35.3935 42.4135 34.4868 42.4135C33.5802 42.4135 32.7735 42.2402 32.0668 41.8935C31.3735 41.5335 30.8268 41.0935 30.4268 40.5735C30.0402 40.0535 29.7202 39.4335 29.4668 38.7135C29.0802 37.5669 28.8868 36.2669 28.8868 34.8135C28.8868 33.4802 29.0402 32.3402 29.3468 31.3935C29.6668 30.4469 30.0202 29.7069 30.4068 29.1735ZM34.4468 38.8535C35.8202 38.8535 36.5068 37.5469 36.5068 34.9335V34.8135C36.5068 32.1335 35.8268 30.7935 34.4668 30.7935C33.1068 30.7935 32.4268 32.1402 32.4268 34.8335C32.4268 37.5135 33.1002 38.8535 34.4468 38.8535Z" fill="#0CA941"/>
<path d="M4.21598 11.7335H1.21598V20.1335H2.05598V17.0135H4.21598C5.72798 17.0135 6.85598 15.8735 6.85598 14.3735C6.85598 12.8615 5.72798 11.7335 4.21598 11.7335ZM4.21598 16.2215H2.05598V12.5255H4.21598C5.25998 12.5255 6.01598 13.2935 6.01598 14.3735C6.01598 15.4415 5.25998 16.2215 4.21598 16.2215ZM8.84892 15.1295V14.1335H8.05692V20.1335H8.84892V16.7975C8.84892 15.3095 9.78492 14.8055 10.7449 14.8055V14.0375C9.97692 14.0375 9.26892 14.2895 8.84892 15.1295ZM12.2264 12.8615C12.5504 12.8615 12.8024 12.5975 12.8024 12.2855C12.8024 11.9735 12.5504 11.7095 12.2264 11.7095C11.9024 11.7095 11.6504 11.9735 11.6504 12.2855C11.6504 12.5975 11.9024 12.8615 12.2264 12.8615ZM11.8304 20.1335H12.6224V14.1335H11.8304V20.1335ZM17.099 20.2775C18.275 20.2775 19.295 19.6655 19.787 18.7175L19.127 18.3335C18.743 19.0295 18.011 19.5095 17.099 19.5095C15.767 19.5095 14.735 18.4655 14.735 17.1335C14.735 15.8015 15.767 14.7575 17.099 14.7575C17.999 14.7575 18.755 15.2255 19.079 15.9335L19.727 15.5615C19.295 14.6135 18.287 13.9895 17.099 13.9895C15.287 13.9895 13.943 15.3575 13.943 17.1335C13.943 18.9095 15.287 20.2775 17.099 20.2775ZM23.6375 13.9895C21.7775 13.9895 20.5055 15.3695 20.5055 17.1335C20.5055 18.9455 21.8015 20.2775 23.6975 20.2775C24.9095 20.2775 25.8335 19.7135 26.3375 18.8975L25.6415 18.4895C25.3175 19.0655 24.6575 19.5095 23.7095 19.5095C22.4375 19.5095 21.4895 18.7535 21.3215 17.5295H26.5895C26.6015 17.4095 26.6135 17.2775 26.6135 17.1575C26.6135 15.5135 25.4735 13.9895 23.6375 13.9895ZM23.6375 14.7575C24.6695 14.7575 25.6295 15.4415 25.7975 16.7615H21.3215C21.4775 15.5855 22.3775 14.7575 23.6375 14.7575Z" fill="#678570"/>
</svg>
