<svg width="201" height="33" viewBox="0 0 201 33" fill="none" xmlns="http://www.w3.org/2000/svg">
<path d="M11.0176 7.35356C11.317 6.43225 12.6204 6.43225 12.9198 7.35357L14.3988 11.9057C14.5327 12.3178 14.9167 12.5967 15.3499 12.5967H20.1363C21.1051 12.5967 21.5078 13.8363 20.7241 14.4057L16.8518 17.2191C16.5013 17.4738 16.3547 17.9252 16.4885 18.3372L17.9676 22.8894C18.267 23.8107 17.2125 24.5768 16.4288 24.0074L12.5565 21.194C12.206 20.9393 11.7314 20.9393 11.3809 21.194L7.5086 24.0074C6.72488 24.5768 5.6704 23.8107 5.96975 22.8894L7.44885 18.3372C7.58272 17.9252 7.43606 17.4738 7.08557 17.2191L3.21326 14.4057C2.42955 13.8363 2.83232 12.5967 3.80105 12.5967H8.58749C9.02072 12.5967 9.40467 12.3178 9.53855 11.9057L11.0176 7.35356Z" fill="#FFD700"/>
<path d="M36.4247 7.35356C36.7241 6.43225 38.0275 6.43225 38.3269 7.35357L39.8059 11.9057C39.9398 12.3178 40.3238 12.5967 40.757 12.5967H45.5434C46.5122 12.5967 46.9149 13.8363 46.1312 14.4057L42.2589 17.2191C41.9084 17.4738 41.7618 17.9252 41.8956 18.3372L43.3747 22.8894C43.6741 23.8107 42.6196 24.5768 41.8359 24.0074L37.9636 21.194C37.6131 20.9393 37.1385 20.9393 36.788 21.194L32.9157 24.0074C32.132 24.5768 31.0775 23.8107 31.3769 22.8894L32.8559 18.3372C32.9898 17.9252 32.8432 17.4738 32.4927 17.2191L28.6204 14.4057C27.8367 13.8363 28.2394 12.5967 29.2082 12.5967H33.9946C34.4278 12.5967 34.8118 12.3178 34.9457 11.9057L36.4247 7.35356Z" fill="#FFD700"/>
<path d="M61.8318 7.35356C62.1312 6.43225 63.4346 6.43225 63.734 7.35357L65.2131 11.9057C65.3469 12.3178 65.7309 12.5967 66.1641 12.5967H70.9506C71.9193 12.5967 72.322 13.8363 71.5383 14.4057L67.666 17.2191C67.3155 17.4738 67.1689 17.9252 67.3028 18.3372L68.7818 22.8894C69.0812 23.8107 68.0267 24.5768 67.243 24.0074L63.3707 21.194C63.0202 20.9393 62.5456 20.9393 62.1951 21.194L58.3228 24.0074C57.5391 24.5768 56.4846 23.8107 56.784 22.8894L58.2631 18.3372C58.3969 17.9252 58.2503 17.4738 57.8998 17.2191L54.0275 14.4057C53.2438 13.8363 53.6465 12.5967 54.6153 12.5967H59.4017C59.8349 12.5967 60.2189 12.3178 60.3528 11.9057L61.8318 7.35356Z" fill="#FFD700"/>
<path d="M87.239 7.35356C87.5383 6.43225 88.8417 6.43225 89.1411 7.35357L90.6202 11.9057C90.754 12.3178 91.138 12.5967 91.5712 12.5967H96.3577C97.3264 12.5967 97.7292 13.8363 96.9454 14.4057L93.0731 17.2191C92.7226 17.4738 92.576 17.9252 92.7099 18.3372L94.1889 22.8894C94.4883 23.8107 93.4338 24.5768 92.6501 24.0074L88.7778 21.194C88.4273 20.9393 87.9527 20.9393 87.6022 21.194L83.7299 24.0074C82.9462 24.5768 81.8917 23.8107 82.1911 22.8894L83.6702 18.3372C83.804 17.9252 83.6574 17.4738 83.3069 17.2191L79.4346 14.4057C78.6509 13.8363 79.0536 12.5967 80.0224 12.5967H84.8088C85.242 12.5967 85.626 12.3178 85.7599 11.9057L87.239 7.35356Z" fill="#FFD700"/>
<path d="M112.646 7.35356C112.945 6.43225 114.249 6.43225 114.548 7.35357L116.027 11.9057C116.161 12.3178 116.545 12.5967 116.978 12.5967H121.765C122.733 12.5967 123.136 13.8363 122.353 14.4057L118.48 17.2191C118.13 17.4738 117.983 17.9252 118.117 18.3372L119.596 22.8894C119.895 23.8107 118.841 24.5768 118.057 24.0074L114.185 21.194C113.834 20.9393 113.36 20.9393 113.009 21.194L109.137 24.0074C108.353 24.5768 107.299 23.8107 107.598 22.8894L109.077 18.3372C109.211 17.9252 109.064 17.4738 108.714 17.2191L104.842 14.4057C104.058 13.8363 104.461 12.5967 105.429 12.5967H110.216C110.649 12.5967 111.033 12.3178 111.167 11.9057L112.646 7.35356Z" fill="#FFD700"/>
<path d="M142.48 14.4027H140.896L141.112 11.5947H146.224V9.65073H139.204L138.718 16.4187H142.39C143.758 16.4187 144.694 17.1747 144.694 18.4347C144.694 19.6947 143.758 20.4687 142.354 20.4687C141.04 20.4687 140.176 19.8747 139.852 18.7587L138.07 19.7847C138.736 21.6027 140.446 22.4847 142.354 22.4847C144.676 22.4847 146.764 21.0807 146.764 18.4347C146.764 15.8067 144.766 14.4027 142.48 14.4027ZM149.291 22.4667C150.029 22.4667 150.641 21.8547 150.641 21.1167C150.641 20.3607 150.029 19.7667 149.291 19.7667C148.535 19.7667 147.941 20.3607 147.941 21.1167C147.941 21.8547 148.535 22.4667 149.291 22.4667ZM156.7 22.4847C159.868 22.4847 161.65 19.8387 161.65 15.9507C161.65 12.0627 159.868 9.41673 156.7 9.41673C153.532 9.41673 151.75 12.0627 151.75 15.9507C151.75 19.8387 153.532 22.4847 156.7 22.4847ZM156.7 20.4687C154.846 20.4687 153.82 18.8487 153.82 15.9507C153.82 13.0527 154.846 11.4327 156.7 11.4327C158.572 11.4327 159.58 13.0527 159.58 15.9507C159.58 18.8487 158.572 20.4687 156.7 20.4687ZM169.508 23.8507H171.236C170.116 21.6107 169.476 19.2107 169.476 16.6507C169.476 14.0907 170.116 11.6907 171.236 9.45073H169.508C168.388 11.6907 167.748 14.0907 167.748 16.6507C167.748 19.2107 168.388 21.6107 169.508 23.8507ZM174.707 11.0507L171.763 12.0907L172.211 13.6587L174.467 13.0187V22.2507H176.307V11.0507H174.707ZM182.853 15.6267L185.125 12.6187V11.0507H178.245V12.7787H182.933L180.517 15.9627L181.253 17.0667H181.669C182.933 17.0667 183.749 17.7387 183.749 18.8587C183.749 19.9787 182.933 20.6667 181.669 20.6667C180.549 20.6667 179.797 20.1707 179.477 19.2267L177.909 20.1387C178.533 21.7067 180.021 22.4587 181.669 22.4587C183.733 22.4587 185.589 21.2107 185.589 18.8587C185.589 17.1147 184.389 15.9947 182.853 15.6267ZM195.313 18.5227H194.033V15.6107H192.177V18.5227H188.673L192.529 11.0507H190.529L186.673 18.5227V20.2347H192.177V22.2507H194.033V20.2347H195.313V18.5227ZM197.635 23.8507C198.755 21.6107 199.395 19.2107 199.395 16.6507C199.395 14.0907 198.755 11.6907 197.635 9.45073H195.907C197.027 11.6907 197.667 14.0907 197.667 16.6507C197.667 19.2107 197.027 21.6107 195.907 23.8507H197.635Z" fill="#678570"/>
</svg>
